#!OML:ASF F:\VICON\USERDATA\INSTALL\rory3\rory3.ASF
:FULLY-SPECIFIED
:DEGREES
4276
root -0.522785 13.1497 -0.515956 -1.41684 -58.2484 -0.0262014
lowerback 40.1806 2.7763 -0.316277
upperback 10.2848 2.30728 -0.744593
thorax -7.91606 0.730766 -1.49903
lowerneck -13.4471 1.61501 -2.88321
upperneck -3.12986 2.47437 0.670202
head 1.23447 1.24155 0.826478
rclavicle -4.99384e-014 6.69966e-015
rhumerus -31.628 25.1983 -78.6938
rradius 90.9835
rwrist 23.6076
rhand -37.1537 -11.4421
rfingers 7.12502
rthumb -10.223 -41.1737
lclavicle -4.99384e-014 6.69966e-015
lhumerus -26.8868 -31.3875 85.2064
lradius 93.837
lwrist -4.50004
lhand -37.6505 38.0313
lfingers 7.12502
lthumb -10.7022 67.7388
rfemur -60.252 -17.3027 2.87047
rtibia 95.4319
rfoot -25.2851 -5.48115
rtoes -9.42823
lfemur -63.1044 14.4089 -3.7925
ltibia 91.7993
lfoot -18.0494 -3.49842
ltoes -9.13165
4277
root -0.547097 13.2297 -0.507349 -1.46503 -58.2524 0.0370064
lowerback 39.9867 2.70831 -0.176671
upperback 10.2196 2.27691 -0.879648
thorax -7.91946 0.724753 -1.70084
lowerneck -13.4177 1.6899 -2.74745
upperneck -3.20218 2.55266 0.671337
head 1.20544 1.28013 0.805963
rclavicle 2.6339e-014 -4.39066e-014
rhumerus -31.5135 25.1887 -79.0016
rradius 90.2775
rwrist 23.2932
rhand -37.0696 -10.9203
rfingers 7.12502
rthumb -10.1418 -40.6559
lclavicle 2.6339e-014 -4.39066e-014
lhumerus -26.6184 -31.4104 85.0472
lradius 93.0049
lwrist -4.196
lhand -37.1819 37.8808
lfingers 7.12502
lthumb -10.2502 67.611
rfemur -59.6686 -16.985 2.89886
rtibia 94.7925
rfoot -25.3138 -5.77692
rtoes -9.3613
lfemur -62.4875 14.2277 -3.81992
ltibia 91.1573
lfoot -18.0521 -3.44746
ltoes -8.73881
4278
root -0.5698 13.3103 -0.496733 -1.71248 -58.2427 0.320098
lowerback 39.8859 2.80077 -0.33085
upperback 10.0777 2.35694 -0.79794
thorax -8.05202 0.764393 -1.56755
lowerneck -12.9948 1.68177 -3.29974
upperneck -3.62385 2.60092 1.13954
head 0.984584 1.32293 1.03959
rclavicle 1.96051e-014 -5.36843e-014
rhumerus -31.5733 25.296 -78.9674
rradius 89.6769
rwrist 22.9719
rhand -36.9204 -10.0221
rfingers 7.12502
rthumb -9.99785 -39.7647
lclavicle 1.96051e-014 -5.36843e-014
lhumerus -26.7997 -31.2869 85.6848
lradius 92.1742
lwrist -4.24632
lhand -36.9566 37.8756
lfingers 7.12502
lthumb -10.0328 67.6165
rfemur -59.0545 -16.7007 2.77034
rtibia 94.1665
rfoot -25.3791 -5.96978
rtoes -9.11189
lfemur -61.8338 13.988 -3.99524
ltibia 90.517
lfoot -18.1388 -3.27178
ltoes -8.7513
4279
root -0.596907 13.3701 -0.481367 -1.90256 -58.1839 0.627784
lowerback 39.6581 2.83413 -0.372555
upperback 9.96846 2.40222 -0.800863
thorax -8.10198 0.791927 -1.56549
lowerneck -12.4172 1.66847 -4.10831
upperneck -4.33317 2.6664 2.04796
head 0.640551 1.38589 1.45404
rclavicle 4.40557e-014 -9.159e-014
rhumerus -31.6055 25.3752 -78.9696
rradius 89.0895
rwrist 22.5587
rhand -36.8059 -9.70723
rfingers 7.12502
rthumb -9.88738 -39.4551
lclavicle 4.40557e-014 -9.159e-014
lhumerus -26.8936 -31.3514 86.1246
lradius 91.3482
lwrist -4.24398
lhand -37.0714 37.5659
lfingers 7.12502
lthumb -10.1436 67.3014
rfemur -58.623 -16.6005 2.59924
rtibia 93.6492
rfoot -25.357 -6.04462
rtoes -8.92059
lfemur -61.4402 14.0189 -4.26532
ltibia 89.983
lfoot -18.1426 -3.27895
ltoes -9.16184
4280
root -0.619002 13.4266 -0.463814 -1.54168 -58.0177 0.270069
lowerback 39.4546 2.64918 0.0131684
upperback 9.85018 2.35092 -0.754626
thorax -8.1591 0.773709 -1.69499
lowerneck -12.1825 1.70394 -4.5338
upperneck -4.64331 2.75994 2.42224
head 0.490816 1.44569 1.64519
rclavicle -3.32964e-015 -1.37658e-014
rhumerus -31.6638 25.6634 -79.0073
rradius 88.5367
rwrist 22.0387
rhand -36.637 -9.89488
rfingers 7.12502
rthumb -9.72447 -39.6504
lclavicle -3.32964e-015 -1.37658e-014
lhumerus -26.6206 -31.4416 86.0684
lradius 90.4463
lwrist -3.79878
lhand -37.0336 37.156
lfingers 7.12502
lthumb -10.107 66.8933
rfemur -58.1035 -16.5925 2.82216
rtibia 93.0709
rfoot -25.3167 -6.24278
rtoes -8.92758
lfemur -61.159 14.0791 -4.17545
ltibia 89.4596
lfoot -17.9928 -3.42976
ltoes -9.36858
4281
root -0.628815 13.5057 -0.448573 -0.774071 -57.8048 -0.671014
lowerback 39.4173 2.35881 0.741125
upperback 9.70667 2.30493 -0.642916
thorax -8.28752 0.753451 -1.93852
lowerneck -12.3541 1.71377 -4.38248
upperneck -4.52106 2.75893 2.13351
head 0.562789 1.43793 1.52964
rclavicle -2.80783e-014 4.47266e-015
rhumerus -31.7302 25.9539 -79.067
rradius 87.9568
rwrist 21.6121
rhand -36.2741 -9.68819
rfingers 7.12502
rthumb -9.37427 -39.4597
lclavicle -2.80783e-014 4.47266e-015
lhumerus -26.3688 -31.5153 86.0578
lradius 89.6011
lwrist -3.17557
lhand -36.8645 37.2751
lfingers 7.12502
lthumb -9.94388 67.0202
rfemur -57.3081 -16.3934 3.38397
rtibia 92.3525
rfoot -25.3341 -6.73216
rtoes -9.01541
lfemur -60.6607 13.7514 -3.66473
ltibia 88.8625
lfoot -17.8579 -3.41193
ltoes -9.16878
4282
root -0.638744 13.6106 -0.437611 -0.330739 -57.708 -1.17259
lowerback 39.335 2.31928 1.29892
upperback 9.65215 2.47144 -0.720063
thorax -8.29163 0.835133 -2.37626
lowerneck -13.1256 1.61108 -3.58551
upperneck -4.13983 2.53975 1.68182
head 0.833959 1.30764 1.25487
rclavicle -4.00054e-014 4.29375e-014
rhumerus -31.5952 25.4983 -79.243
rradius 87.2271
rwrist 21.3945
rhand -36.1482 -9.25893
rfingers 7.12502
rthumb -9.25285 -39.0359
lclavicle -4.00054e-014 4.29375e-014
lhumerus -26.035 -32.0137 86.045
lradius 88.8238
lwrist -2.79396
lhand -36.7183 37.2191
lfingers 7.12502
lthumb -9.80287 66.971
rfemur -56.5196 -15.9897 3.73681
rtibia 91.51
rfoot -25.2774 -7.35632
rtoes -8.96457
lfemur -59.9124 12.834 -3.27401
ltibia 88.09
lfoot -17.922 -2.74859
ltoes -9.46911
4283
root -0.667684 13.6558 -0.417987 -0.145364 -57.628 -1.26987
lowerback 39.0735 2.09006 0.946431
upperback 9.31211 2.14924 -0.220969
thorax -8.6292 0.681941 -1.53787
lowerneck -12.5754 1.90503 -4.78333
upperneck -4.09151 3.07941 1.53656
head 0.728186 1.59093 1.43016
rclavicle 4.72114e-014 -4.03533e-014
rhumerus -31.6336 27.1778 -78.8808
rradius 86.4177
rwrist 20.9759
rhand -36.5499 -9.22137
rfingers 7.12502
rthumb -9.64037 -38.9808
lclavicle 4.72114e-014 -4.03533e-014
lhumerus -26.9089 -30.424 87.2833
lradius 88.041
lwrist -2.82193
lhand -36.578 36.9
lfingers 7.12502
lthumb -9.66748 66.6582
rfemur -56.1357 -15.7549 3.74463
rtibia 90.9856
rfoot -25.2593 -7.45166
rtoes -8.1439
lfemur -59.7026 13.2694 -3.3945
ltibia 87.5658
lfoot -17.7157 -2.93884
ltoes -10.3361
4284
root -0.69406 13.7288 -0.403892 -0.113547 -57.5043 -1.22161
lowerback 38.8084 2.26346 1.46049
upperback 9.39931 2.5181 -0.585938
thorax -8.39866 0.865118 -2.3334
lowerneck -13.794 1.76636 -3.01062
upperneck -3.52595 2.69575 0.618217
head 1.15866 1.35259 0.842949
rclavicle 4.55217e-014 -7.91163e-014
rhumerus -31.3818 25.6162 -79.2753
rradius 85.4631
rwrist 20.8287
rhand -36.7878 -9.49073
rfingers 7.12502
rthumb -9.86989 -39.2394
lclavicle 4.55217e-014 -7.91163e-014
lhumerus -25.9735 -31.9122 86.6837
lradius 87.0714
lwrist -2.34784
lhand -36.1538 36.8
lfingers 7.12502
lthumb -9.25818 66.5767
rfemur -55.5648 -15.5349 3.69583
rtibia 90.3263
rfoot -25.3216 -7.35074
rtoes -7.07944
lfemur -59.2527 13.1669 -3.49675
ltibia 86.8573
lfoot -17.5272 -2.85784
ltoes -10.7095
